<svg width="90" height="44" viewBox="0 0 90 44" fill="none" xmlns="http://www.w3.org/2000/svg">
<path fill-rule="evenodd" clip-rule="evenodd" d="M50.4004 7.21787V13.7473L52.8846 13.8063C54.2509 13.8389 57.101 13.8662 59.2182 13.8671C63.8673 13.8692 66.9835 13.9874 67.6741 14.1879C68.7102 14.4888 69.7688 15.1616 70.8671 16.2175C71.6868 17.0056 72.2638 17.7978 72.9469 19.073L73.4073 19.9327L73.4074 23.824C73.4074 25.9642 73.4342 31.1946 73.4668 35.4469L73.5263 43.1785H80.146H86.7656L86.7028 31.5475L86.64 19.9166L77.0472 10.3025L67.4544 0.688477H58.9274H50.4004V7.21787ZM14.0548 7.49101V14.0246L21.7312 14.0734C25.9533 14.1002 29.7322 14.1618 30.1289 14.2102C33.0948 14.5726 36.0448 17.3126 36.7507 20.3608C36.98 21.3508 37.0587 24.913 37.0603 34.3713L37.0617 43.3578H43.5968H50.1318V31.6818V20.0058L40.62 10.4816L31.1082 0.957401H22.5815H14.0548V7.49101ZM0 28.8807V43.6267H6.89312H13.7862V28.8807V14.1347H6.89312H0V28.8807Z" fill="white"/>
<circle cx="86.8721" cy="3.81643" r="2.98577" stroke="white" stroke-width="0.284359"/>
<path d="M87.6272 4L86.9192 2.78436H86.45V4H86.0618V1.02702H87.0215C87.2462 1.02702 87.4353 1.06541 87.5888 1.14219C87.7452 1.21897 87.8618 1.32276 87.9386 1.45356C88.0154 1.58437 88.0538 1.73366 88.0538 1.90143C88.0538 2.10617 87.9941 2.28673 87.8746 2.44313C87.758 2.59953 87.5817 2.70332 87.3457 2.75451L88.0922 4H87.6272ZM86.45 2.47299H87.0215C87.232 2.47299 87.3898 2.42181 87.495 2.31944C87.6002 2.21422 87.6528 2.07489 87.6528 1.90143C87.6528 1.72513 87.6002 1.58863 87.495 1.49195C87.3926 1.39527 87.2348 1.34693 87.0215 1.34693H86.45V2.47299Z" fill="white"/>
</svg>
