<svg width="20" height="24" viewBox="0 0 20 24" fill="none" xmlns="http://www.w3.org/2000/svg">
<path fill-rule="evenodd" clip-rule="evenodd" d="M12.5611 0.0704524C12.1867 0.171927 11.8885 0.354525 11.6009 0.658386C11.24 1.03967 11.0637 1.43661 11.0327 1.93774C10.9914 2.60488 11.1643 3.09307 11.6079 3.5618C12.7972 4.81846 14.876 4.15283 15.1649 2.42289C15.4092 0.96023 13.9943 -0.318002 12.5611 0.0704524ZM10.8293 4.84397C10.4008 4.9983 10.0855 5.31604 9.94458 5.73549C9.90052 5.86664 9.87144 5.98101 9.88 5.98959C9.88852 5.99822 9.97483 5.98317 10.0717 5.95621C10.1687 5.92924 10.2551 5.91443 10.264 5.92329C10.2728 5.9322 9.85521 6.16661 9.33606 6.44431C7.9593 7.18065 7.89347 7.22403 7.75412 7.48555C7.68838 7.60897 7.29728 8.52519 6.8851 9.5216C6.05391 11.5306 6.0346 11.6054 6.24388 12.005C6.53555 12.5618 7.24657 12.6817 7.71699 12.2534C7.86807 12.1158 7.98257 11.8729 8.60653 10.3656L9.32267 8.63562L9.85772 8.34897C11.2498 7.60311 11.2832 7.58669 11.1353 7.7216C11.0574 7.7926 10.7321 8.07423 10.4122 8.34747C9.62551 9.01953 9.6651 8.8864 9.50793 11.3879L9.38878 13.2838L9.4923 15.3971L9.59582 17.5104L8.44448 20.0126C7.63516 21.7716 7.28532 22.5815 7.26676 22.7395C7.2173 23.1603 7.44989 23.6166 7.82754 23.8396C8.26763 24.0996 8.78645 24.0387 9.16145 23.6832C9.37766 23.4782 9.46057 23.3137 10.6067 20.8163C11.2756 19.3591 11.8421 18.1036 11.8658 18.0262C11.894 17.9343 11.8731 17.1422 11.8055 15.7409C11.7485 14.5614 11.7137 13.5844 11.7282 13.5698C11.7426 13.5553 11.8607 13.5576 11.9905 13.5749L12.2267 13.6065L12.8561 15.5116L13.4856 17.4166L13.7179 20.1364C13.8456 21.6322 13.9726 22.9653 14.0001 23.0988C14.1311 23.7338 14.792 24.1346 15.417 23.9583C15.6795 23.8842 16.0306 23.5794 16.1445 23.3269C16.1958 23.2128 16.2305 23.0255 16.2315 22.8561C16.2324 22.7014 16.1263 21.3192 15.9955 19.7847L15.7578 16.9946L15.2368 15.4003L14.7159 13.8059L14.8529 11.7192C14.9282 10.5716 14.9958 9.62505 15.0031 9.6159C15.0104 9.60676 15.0837 9.67658 15.1661 9.77107C15.2484 9.86555 15.3942 9.98321 15.4901 10.0325C15.5859 10.0818 16.4221 10.3132 17.3481 10.5469C18.6374 10.8721 19.0718 10.9645 19.2022 10.9411C19.6316 10.8642 19.951 10.534 19.9898 10.1267C20.0263 9.74392 19.9709 9.57473 19.7298 9.33272L19.5119 9.11392L17.9998 8.72505C17.1682 8.51112 16.4563 8.30752 16.4179 8.27254C16.3795 8.23751 16.0895 7.90673 15.7734 7.53741L15.1986 6.86591L15.1908 6.42044C15.184 6.03883 15.1652 5.94092 15.0596 5.73755C14.9918 5.60696 14.8483 5.4199 14.7407 5.32195C14.3845 4.99769 14.2702 4.97011 12.8681 4.87051C11.3928 4.76566 11.0587 4.7613 10.8293 4.84397ZM5.4835 14.4087C5.11845 15.212 4.81352 15.8767 4.80594 15.8858C4.79835 15.895 4.53752 15.7842 4.22631 15.6397C3.56257 15.3313 3.35548 15.3062 3.0357 15.495C2.80167 15.6333 2.98657 15.2643 1.25053 19.0572C0.00157881 21.7859 -0.0152172 21.8267 0.00330028 22.0848C0.0272613 22.4184 0.158698 22.6091 0.475124 22.7693C0.607212 22.8361 0.722086 22.8969 0.730367 22.9043C0.738649 22.9117 0.712455 22.982 0.67221 23.0604C0.631918 23.1389 0.59907 23.2834 0.599163 23.3813C0.599815 24.0408 1.5035 24.2317 1.75595 23.6257C1.84356 23.4153 1.86705 23.4098 2.14091 23.535C2.25243 23.586 2.4156 23.6282 2.50349 23.6288C2.75803 23.6304 3.0504 23.461 3.177 23.2385C3.3967 22.8523 5.94392 17.2251 5.97337 17.0608C6.00734 16.8715 5.91187 16.5912 5.75679 16.4248C5.69277 16.3561 5.6716 16.2907 5.69226 16.2252C5.70915 16.1716 6.01441 15.492 6.37066 14.7151C6.72687 13.9382 7.00868 13.2868 6.99686 13.2675C6.98504 13.2482 6.89353 13.2214 6.79349 13.2079C6.69346 13.1943 6.50717 13.1304 6.37946 13.0658L6.14729 12.9482L5.4835 14.4087Z" fill="#9099A3"/>
</svg>
