<svg width="67" height="33" viewBox="0 0 67 33" fill="none" xmlns="http://www.w3.org/2000/svg">
<path fill-rule="evenodd" clip-rule="evenodd" d="M37.3139 6.04399V10.878L39.1531 10.9218C40.1647 10.9459 42.2747 10.9661 43.8422 10.9668C47.2841 10.9683 49.5912 11.0558 50.1025 11.2043C50.8696 11.427 51.6533 11.9252 52.4664 12.7069C53.0733 13.2903 53.5005 13.8768 54.0062 14.821L54.3471 15.4574L54.3471 18.3384C54.3471 19.9229 54.3669 23.7952 54.3911 26.9434L54.4351 32.6674H59.336H64.2369L64.1904 24.0565L64.1439 15.4455L57.0419 8.32771L49.9398 1.20996H43.6269H37.3139V6.04399ZM10.4055 6.24621V11.0834L16.0887 11.1195C19.2145 11.1393 22.0122 11.1849 22.3059 11.2207C24.5017 11.4891 26.6857 13.5176 27.2084 15.7744C27.3781 16.5073 27.4364 19.1446 27.4376 26.147L27.4386 32.8002H32.2768H37.1151V24.1559V15.5116L30.073 8.46031L23.031 1.40906H16.7182H10.4055V6.24621ZM0 22.0821V32.9993H5.10332H10.2066V22.0821V11.1649H5.10332H0V22.0821Z" fill="white"/>
<circle cx="64.3158" cy="3.52574" r="2.21052" stroke="white" stroke-width="0.210525"/>
<path d="M64.8748 4.7002L64.3505 3.8002H64.0032V4.7002H63.7158V2.49915H64.4263C64.5927 2.49915 64.7327 2.52757 64.8463 2.58442C64.9621 2.64126 65.0484 2.7181 65.1053 2.81494C65.1621 2.91178 65.1905 3.02231 65.1905 3.14652C65.1905 3.2981 65.1463 3.43178 65.0579 3.54757C64.9716 3.66336 64.8411 3.7402 64.6663 3.77809L65.219 4.7002H64.8748ZM64.0032 3.56967H64.4263C64.5821 3.56967 64.699 3.53178 64.7769 3.45599C64.8548 3.3781 64.8937 3.27494 64.8937 3.14652C64.8937 3.01599 64.8548 2.91494 64.7769 2.84336C64.7011 2.77178 64.5842 2.73599 64.4263 2.73599H64.0032V3.56967Z" fill="white"/>
</svg>
