<svg width="128" height="63" viewBox="0 0 128 63" fill="none" xmlns="http://www.w3.org/2000/svg">
<path fill-rule="evenodd" clip-rule="evenodd" d="M73.9368 9.58831V19.1669L77.5811 19.2535C79.5855 19.3012 83.7665 19.3414 86.8724 19.3427C93.6926 19.3457 98.264 19.5191 99.2771 19.8133C100.797 20.2546 102.35 21.2417 103.961 22.7907C105.164 23.9467 106.01 25.1089 107.012 26.9797L107.688 28.2408L107.688 33.9494C107.688 37.089 107.727 44.7619 107.775 51L107.862 62.3422H117.573H127.284L127.192 45.2797L127.1 28.2171L113.027 14.1135L98.9548 0.00976562H86.4459H73.9368V9.58831ZM20.6182 9.989V19.5737L31.8795 19.6453C38.0732 19.6846 43.6168 19.7749 44.1987 19.8459C48.5497 20.3776 52.8773 24.3971 53.9129 28.8689C54.2492 30.3212 54.3647 35.5469 54.367 49.422L54.3691 62.6052H63.9559H73.5428V45.4766V28.3481L59.5891 14.3762L45.6354 0.404274H33.1268H20.6182V9.989ZM0 41.3674V62.9997H10.1121H20.2243V41.3674V19.7352H10.1121H0V41.3674Z" fill="white"/>
</svg>
